<svg xmlns="http://www.w3.org/2000/svg" width="16" height="16" viewBox="0 0 16 16"><path d="M0 0h16v16H0z"/><path d="M12.62 13.17l-.17-9.62.15.01L8.26 13.9h-.52L3.4 3.56l.15-.01-.17 9.62 2.16.32v.41H.56v-.36l1.9-.37.35-9.54L.7 3.3V2.9h3.54l3.9 9.54h-.3l3.9-9.54h3.53v.4l-2.09.33.34 9.54 1.9.37v.36h-4.97v-.4z" fill="#fff"/><path d="M8 2.44s1.14 1.44 0 1.44 0-1.44 0-1.44" fill="#fff"/><path d="M8 2.44s-1.02 1.52-1.37.44S8 2.44 8 2.44M8 2.44s1.72-.64 1.37.44S8 2.44 8 2.44" fill="#fff"/><path d="M8 2.44s-1.76-.5-.85-1.17S8 2.44 8 2.44" fill="#fff"/><path d="M8 2.44S7.93.6 8.85 1.27 8 2.44 8 2.44" fill="#fff"/></svg>