<svg xmlns="http://www.w3.org/2000/svg" width="16" height="16" viewBox="0 0 16 16"><path d="M0,0V16H16V0ZM7.84,2.385c-.412-.143-1.431-.572-.686-1.113s.835.529.846.977c.011-.448.111-1.511.846-.977s-.274.97-.686,1.113c.409-.126,1.495-.388,1.208.5s-1.006.04-1.27-.308c.246.351.831,1.3-.1,1.3s-.344-.952-.1-1.3c-.264.348-.986,1.184-1.27.308S7.431,2.259,7.84,2.385Zm7.6,11.514H10.457v-.408l2.158-.322-.163-9.255L8.263,13.9H7.737L3.548,3.914l-.163,9.255,2.158.322V13.9H.562v-.356l1.905-.374.34-9.537L.716,3.292V2.9H4.251L8,12.084,11.749,2.9h3.535v.392l-2.091.34.34,9.537,1.905.374Z"/></svg>