<svg xmlns="http://www.w3.org/2000/svg" width="16" height="16" viewBox="0 0 16 16"><rect width="16" height="16"/><path d="M12.615,13.169l-.17-9.622.154.017L8.263,13.9H7.737L3.4,3.564l.154-.017-.17,9.622,2.158.322V13.9H.562v-.357l1.905-.374.34-9.537L.716,3.292V2.9H4.251l3.894,9.538h-.29L11.749,2.9h3.535v.392l-2.091.34.34,9.537,1.9.374V13.9H10.457v-.409Z" style="fill:#fff"/><path d="M8,2.436S9.136,3.875,8,3.875,8,2.436,8,2.436" style="fill:#fff"/><path d="M8,2.436S6.983,3.961,6.632,2.88,8,2.436,8,2.436" style="fill:#fff"/><path d="M8,2.436S9.719,1.8,9.368,2.88,8,2.436,8,2.436" style="fill:#fff"/><path d="M8,2.436s-1.765-.5-.846-1.164S8,2.436,8,2.436" style="fill:#fff"/><path d="M8,2.436S7.927.6,8.846,1.272,8,2.436,8,2.436" style="fill:#fff"/></svg>